<svg id="Layer_1" data-name="Layer 1" xmlns="http://www.w3.org/2000/svg" viewBox="0 0 485 95"><defs><style>.cls-1{fill:#005ab6;}.cls-2{fill:#7f7f7f;}</style></defs><path class="cls-1" d="M82.72,59.45c-.7.84-1.28,1.48-1.81,2.16L62.19,85.52l-.17.21c-2.23,2.78-1.6,2.49-5.05,2.51q-8.4,0-16.79,0c-.87,0-1.74-.07-2.85-.12A7.33,7.33,0,0,1,38,86.51c1.27-1.71,2.59-3.38,3.91-5.05Q55.8,63.61,69.74,45.78,84.1,27.42,98.43,9.06c.64-.82,1.13-1.83,2.22-2.17,1.64,1.4,10.14,12.2,11.37,14.44a5.1,5.1,0,0,1-1.48,2.43q-7,9-14.11,18c-.59.76-1.14,1.55-1.74,2.38.6.84,1.1,1.56,1.64,2.25q15,19.22,30,38.42a6.91,6.91,0,0,1,1.79,2.86c-.64.68-1.39.51-2.06.52-4.88,0-9.77,0-14.65,0-1.42,0-2.84,0-4.26,0A3,3,0,0,1,104.4,87c-1.11-1.49-2.29-2.93-3.44-4.4Q92.67,72,84.39,61.37C83.91,60.76,83.37,60.2,82.72,59.45Z"/><path class="cls-1" d="M65.19,6.73c4,4.83,7.65,9.68,11.46,14.55-.65.93-1.12,1.66-1.66,2.35Q56.78,46.91,38.55,70.17L26.07,86.09c-.33.42-.67.83-1,1.25a2.17,2.17,0,0,1-1.85.89c-.35,0-.71,0-1.06,0H3.8a2.7,2.7,0,0,1-2.1-.46,5.79,5.79,0,0,1,1.51-2.45c4.08-5.26,8.19-10.5,12.28-15.74L62.87,9A5.8,5.8,0,0,1,65.19,6.73Z"/><path class="cls-1" d="M106.65,44.08c3.74-4.77,7.29-9.31,10.86-13.84a4.17,4.17,0,0,1,.79-.61c1.12.36,1.54,1.3,2.13,2.05q8.22,10.49,16.41,21Q149.47,68.84,162.1,85a6.15,6.15,0,0,1,1.65,2.6c-.44.75-1.11.61-1.69.62-3.29,0-6.57,0-9.86,0-2.93,0-5.87-.07-8.79,0a4,4,0,0,1-3.61-1.75c-3.24-4.23-6.56-8.4-9.85-12.59q-10.53-13.43-21-26.84C108.2,46.19,107.53,45.26,106.65,44.08Z"/><path class="cls-1" d="M180.33,10.17h11.46l9.33,15.15,9.33-15.15h11.46V49.29H211.12V26.83l-10,15.31h-.23L191,26.94V49.29H180.33Z"/><path class="cls-1" d="M228.22,8.5h11.06v7.82H228.22Zm.22,10.56h10.62V49.29H228.44Z"/><path class="cls-1" d="M245,19.06H255.6v4.25c2-2.52,4.75-4.92,9-4.92,6.43,0,10.28,4.25,10.28,11.12V49.29H264.31V32.92c0-3.3-1.73-5.09-4.24-5.09s-4.47,1.79-4.47,5.09V49.29H245Z"/><path class="cls-1" d="M282.25,39.9V27.61h-3.58V19.06h3.58V11.4h10.62v7.66h7v8.55h-7V37.84c0,2.12.95,3,2.9,3a9.33,9.33,0,0,0,4-1v8.32a15.14,15.14,0,0,1-7.37,1.74C286.05,49.91,282.25,47.11,282.25,39.9Z"/><path class="cls-1" d="M302.42,34.31V34.2c0-8.83,6.31-15.81,15.26-15.81,10.45,0,15.25,7.65,15.25,16.54,0,.67,0,1.45-.06,2.18H312.65a6.23,6.23,0,0,0,6.53,5c2.52,0,4.53-.95,6.71-3.07l5.87,4.86A15.84,15.84,0,0,1,318.63,50C309.13,50,302.42,43.7,302.42,34.31ZM323,31.69c-.39-3.35-2.34-5.48-5.25-5.48s-4.69,2.18-5.25,5.48Z"/><path class="cls-1" d="M343.55,34l-10-15H345l4.47,7.43,4.47-7.43h11.23L355.23,34,365.4,49.29H354l-4.7-7.77-4.75,7.77H333.38Z"/><path class="cls-2" d="M397.65,13.79H384.88v35.5h-5.37V13.79H366.77V9.57h30.88Z"/><path class="cls-2" d="M412.3,49.86a12.41,12.41,0,0,1-9.8-4.1,15.46,15.46,0,0,1-3.65-10.66V33.9a15.14,15.14,0,0,1,3.75-10.49,11.58,11.58,0,0,1,8.89-4.19q6,0,9,3.61t3.05,9.6v3.36H404.42l-.08.13a11.59,11.59,0,0,0,2.15,7,6.88,6.88,0,0,0,5.81,2.74,13.48,13.48,0,0,0,4.79-.78,10.94,10.94,0,0,0,3.56-2.14l2.1,3.49a12.35,12.35,0,0,1-4.17,2.61A16.75,16.75,0,0,1,412.3,49.86Zm-.81-26.41a5.85,5.85,0,0,0-4.62,2.27,10.8,10.8,0,0,0-2.34,5.7l.05.14H418.2v-.71a8.27,8.27,0,0,0-1.69-5.28A6.06,6.06,0,0,0,411.49,23.45Z"/><path class="cls-2" d="M441.61,45.64a7.24,7.24,0,0,0,4.7-1.66,5,5,0,0,0,2-4h4.82l.06.17c.09,2.54-1,4.81-3.4,6.79a12.39,12.39,0,0,1-8.22,3q-6.45,0-9.85-4.2a16.17,16.17,0,0,1-3.41-10.56V34a16.16,16.16,0,0,1,3.42-10.52q3.42-4.22,9.84-4.22a11.94,11.94,0,0,1,8.47,3.06,9.52,9.52,0,0,1,3.18,7.5l-.06.17h-4.85a6.25,6.25,0,0,0-1.91-4.6,6.61,6.61,0,0,0-4.83-1.9c-2.82,0-4.84,1-6.05,3a14.3,14.3,0,0,0-1.81,7.45v1.15a14.45,14.45,0,0,0,1.8,7.53Q437.35,45.64,441.61,45.64Z"/><path class="cls-2" d="M464.63,23.73a10.85,10.85,0,0,1,3.76-3.32,10.29,10.29,0,0,1,4.92-1.19,9.52,9.52,0,0,1,7.35,2.84q2.64,2.84,2.64,8.73v18.5h-5.38V30.74q0-3.66-1.57-5.4a5.94,5.94,0,0,0-4.68-1.75,7.94,7.94,0,0,0-4.05,1.05,8.85,8.85,0,0,0-3,2.85v21.8h-5.37V6.73h5.37Z"/><path class="cls-2" d="M183,80v8h-2.69V68.12h7.6a7,7,0,0,1,4.94,1.64,6.18,6.18,0,0,1,0,8.64A7,7,0,0,1,187.93,80Zm0-2.12h4.91a3.9,3.9,0,0,0,3-1.08,3.85,3.85,0,0,0,1-2.73,3.93,3.93,0,0,0-1-2.75,3.88,3.88,0,0,0-3-1.1H183Z"/><path class="cls-2" d="M206.65,88c-.1-.45-.17-.84-.22-1.18a9.15,9.15,0,0,1-.09-1,6.44,6.44,0,0,1-2,1.78,5.08,5.08,0,0,1-2.6.71,4.79,4.79,0,0,1-3.51-1.18,4.31,4.31,0,0,1-1.21-3.25,3.82,3.82,0,0,1,1.71-3.31,8,8,0,0,1,4.65-1.19h2.91V77.88a2.71,2.71,0,0,0-.79-2.06,3.1,3.1,0,0,0-2.23-.75,3.23,3.23,0,0,0-2.11.66,2,2,0,0,0-.81,1.59h-2.57l0-.08a3.59,3.59,0,0,1,1.53-2.95A6.22,6.22,0,0,1,203.47,73a6.07,6.07,0,0,1,4,1.28A4.5,4.5,0,0,1,209,77.9V85a15,15,0,0,0,.08,1.53,9.11,9.11,0,0,0,.3,1.45Zm-4.47-2a4.81,4.81,0,0,0,2.64-.75,3.51,3.51,0,0,0,1.52-1.72V81.15h-3a3.9,3.9,0,0,0-2.6.82,2.42,2.42,0,0,0-1,1.92,2,2,0,0,0,.61,1.55A2.57,2.57,0,0,0,202.18,86Z"/><path class="cls-2" d="M219.92,75.6l-1.38-.08a3.1,3.1,0,0,0-1.79.5,3.22,3.22,0,0,0-1.13,1.42V88h-2.69V73.22h2.4l.26,2.16a5.26,5.26,0,0,1,1.55-1.79,3.73,3.73,0,0,1,2.7-.59c.18,0,.33.07.45.1Z"/><path class="cls-2" d="M226.29,69.66v3.56h2.8v2h-2.8v9a2,2,0,0,0,.43,1.46,1.57,1.57,0,0,0,1.14.42,3.36,3.36,0,0,0,.51,0,3,3,0,0,0,.5-.14l.35,1.84a2.33,2.33,0,0,1-.88.41,4.56,4.56,0,0,1-1.16.15,3.48,3.48,0,0,1-2.61-1,4.27,4.27,0,0,1-1-3.1v-9h-2.34v-2h2.34V69.66Z"/><path class="cls-2" d="M234.8,73.22l.19,2.2a5.36,5.36,0,0,1,1.85-1.82,5,5,0,0,1,2.53-.65,4.83,4.83,0,0,1,3.7,1.4,6.15,6.15,0,0,1,1.31,4.32V88h-2.69V78.72a4,4,0,0,0-.77-2.77,3.1,3.1,0,0,0-2.35-.82,3.83,3.83,0,0,0-2.06.56,4.18,4.18,0,0,0-1.42,1.53V88H232.4V73.22Z"/><path class="cls-2" d="M254.41,88.27a6.23,6.23,0,0,1-4.91-2,7.76,7.76,0,0,1-1.82-5.33v-.6a7.55,7.55,0,0,1,1.88-5.24A5.77,5.77,0,0,1,254,73a5.58,5.58,0,0,1,4.51,1.8,7.16,7.16,0,0,1,1.53,4.8v1.68h-9.58l0,.07a5.82,5.82,0,0,0,1.08,3.49,3.44,3.44,0,0,0,2.91,1.37,6.77,6.77,0,0,0,2.39-.39,5.56,5.56,0,0,0,1.78-1.07l1.05,1.75a6.27,6.27,0,0,1-2.09,1.3A8.34,8.34,0,0,1,254.41,88.27ZM254,75.07a2.94,2.94,0,0,0-2.31,1.13,5.32,5.32,0,0,0-1.17,2.85l0,.07h6.81v-.36a4.08,4.08,0,0,0-.84-2.63A3,3,0,0,0,254,75.07Z"/><path class="cls-2" d="M270,75.6l-1.38-.08a3.1,3.1,0,0,0-1.79.5,3.22,3.22,0,0,0-1.13,1.42V88h-2.69V73.22h2.4l.26,2.16a5.26,5.26,0,0,1,1.55-1.79A3.73,3.73,0,0,1,270,73l.45.1Z"/><path class="cls-2" d="M293.53,70.24h-6.38V88h-2.69V70.24h-6.37V68.12h15.44Z"/><path class="cls-2" d="M294.24,80.47a8.16,8.16,0,0,1,1.77-5.4A6,6,0,0,1,300.83,73a6,6,0,0,1,4.85,2.12,8.08,8.08,0,0,1,1.78,5.4v.3a8,8,0,0,1-1.78,5.4,6.59,6.59,0,0,1-9.66,0,8,8,0,0,1-1.78-5.39Zm2.69.29a7,7,0,0,0,1,3.87,3.56,3.56,0,0,0,5.85,0,6.91,6.91,0,0,0,1-3.87v-.3a6.89,6.89,0,0,0-1-3.85,3.28,3.28,0,0,0-2.94-1.54,3.23,3.23,0,0,0-2.91,1.54,7,7,0,0,0-1,3.85Z"/><path class="cls-2" d="M332.59,85.35a6.42,6.42,0,0,1-2.47,2,9.76,9.76,0,0,1-4.53.91A8.08,8.08,0,0,1,319.7,86a7.86,7.86,0,0,1-2.32-5.89V76a8.2,8.2,0,0,1,2.17-5.9,7.39,7.39,0,0,1,5.59-2.27,8,8,0,0,1,5.36,1.67,5.58,5.58,0,0,1,2,4.33l0,.08H329.9a4.16,4.16,0,0,0-1.32-2.85A4.81,4.81,0,0,0,325.14,70a4.5,4.5,0,0,0-3.67,1.71A6.57,6.57,0,0,0,320.08,76v4.11a6.25,6.25,0,0,0,1.55,4.36,5.13,5.13,0,0,0,4,1.71,7.26,7.26,0,0,0,2.77-.45,3.88,3.88,0,0,0,1.54-1V80.18h-4.35V78.07h7Z"/><path class="cls-2" d="M343.72,75.6l-1.38-.08a3.1,3.1,0,0,0-1.79.5,3.29,3.29,0,0,0-1.13,1.42V88h-2.69V73.22h2.4l.26,2.16a5.26,5.26,0,0,1,1.55-1.79,3.73,3.73,0,0,1,2.7-.59c.18,0,.33.07.45.1Z"/><path class="cls-2" d="M345.41,80.47a8.16,8.16,0,0,1,1.77-5.4,6.57,6.57,0,0,1,9.67,0,8.08,8.08,0,0,1,1.78,5.4v.3a8.09,8.09,0,0,1-1.77,5.4,6.61,6.61,0,0,1-9.67,0,8,8,0,0,1-1.78-5.39Zm2.69.29a7,7,0,0,0,1,3.87,3.57,3.57,0,0,0,5.86,0,7,7,0,0,0,1-3.87v-.3a6.89,6.89,0,0,0-1-3.85A3.28,3.28,0,0,0,352,75.07a3.23,3.23,0,0,0-2.91,1.54,7,7,0,0,0-1,3.85Z"/><path class="cls-2" d="M365.7,82.61,366,84.4h.08l.38-1.79,2.95-9.39h2.16l3,9.39.42,2H375l.4-2,2.31-9.39h2.68L376.15,88H374l-2.85-9-.62-2.51h-.08l-.59,2.5L367,88h-2.17l-4.28-14.77h2.67Z"/></svg>